<?xml version="1.0" standalone="no"?><!DOCTYPE svg PUBLIC "-//W3C//DTD SVG 1.1//EN" "http://www.w3.org/Graphics/SVG/1.1/DTD/svg11.dtd"><svg t="1690794976846" class="icon" viewBox="0 0 1024 1024" version="1.1" xmlns="http://www.w3.org/2000/svg" p-id="1780" data-spm-anchor-id="a313x.7781069.0.i0" xmlns:xlink="http://www.w3.org/1999/xlink" width="200" height="200"><path d="M980.28 357.222l-85.736-17.144a320.46 320.46 0 0 0-21.734-52.456l48.504-72.756c14.33-21.496 11.474-50.352-6.796-68.624l-36.76-36.76c-18.268-18.27-47.126-21.132-68.624-6.796l-72.756 48.504a320.68 320.68 0 0 0-52.456-21.734L666.774 43.72C661.708 18.386 639.282 0 613.448 0h-51.99c-25.832 0-48.262 18.386-53.328 43.72l-17.148 85.736a320.532 320.532 0 0 0-52.456 21.734l-72.756-48.504c-21.496-14.33-50.358-11.476-68.624 6.792l-36.762 36.764c-18.266 18.268-21.122 47.126-6.792 68.62l48.504 72.756a320.606 320.606 0 0 0-21.734 52.456l-85.736 17.146c-25.332 5.068-43.72 27.494-43.72 53.33v51.986c0 25.834 18.386 48.264 43.72 53.33l55.51 11.1a16.168 16.168 0 0 0 6.34-31.708l-55.51-11.1c-10.268-2.05-17.722-11.146-17.722-21.618v-51.986c0-10.472 7.454-19.568 17.722-21.62l95.29-19.058a16.17 16.17 0 0 0 12.4-11.5 287.988 287.988 0 0 1 26.386-63.68 16.172 16.172 0 0 0-0.634-16.904l-53.91-80.866c-5.81-8.714-4.65-20.416 2.756-27.818l36.762-36.764c7.406-7.406 19.104-8.562 27.818-2.752L428.7 183.5a16.172 16.172 0 0 0 16.904 0.636 287.966 287.966 0 0 1 63.68-26.384 16.17 16.17 0 0 0 11.5-12.4l19.058-95.29c2.054-10.27 11.146-17.724 21.618-17.724h51.99c10.472 0 19.566 7.454 21.618 17.724l19.058 95.29a16.168 16.168 0 0 0 11.5 12.4 288.004 288.004 0 0 1 63.68 26.384 16.172 16.172 0 0 0 16.904-0.636l80.868-53.91c8.714-5.81 20.414-4.654 27.818 2.756l36.76 36.76c7.408 7.408 8.564 19.106 2.756 27.82l-53.91 80.866a16.162 16.162 0 0 0-0.634 16.904 288.084 288.084 0 0 1 26.386 63.68 16.174 16.174 0 0 0 12.4 11.5l95.29 19.058c10.27 2.052 17.722 11.148 17.722 21.62v51.986c0 10.472-7.454 19.568-17.722 21.62l-95.29 19.058a16.172 16.172 0 0 0-12.4 11.498 288.05 288.05 0 0 1-26.386 63.68 16.172 16.172 0 0 0 0.634 16.904l53.91 80.866c5.81 8.714 4.65 20.416-2.756 27.818l-36.762 36.764c-7.406 7.406-19.102 8.562-27.818 2.752l-80.866-53.908a16.164 16.164 0 0 0-22.42 4.484 16.168 16.168 0 0 0 4.484 22.42l80.866 53.91a54.18 54.18 0 0 0 30.114 9.096c14.06 0 28.03-5.408 38.508-15.888l36.762-36.764c18.266-18.268 21.122-47.126 6.792-68.62l-48.504-72.756a320.752 320.752 0 0 0 21.734-52.456l85.736-17.144c25.332-5.068 43.72-27.496 43.72-53.33v-51.986c-0.002-25.84-18.388-48.266-43.722-53.336z" p-id="1781" fill="#13227a" data-spm-anchor-id="a313x.7781069.0.i3" class="selected"></path><path d="M641.348 560.506H490.442a16.166 16.166 0 0 0-16.168 16.168 16.168 16.168 0 0 0 16.168 16.168h150.906c14.86 0 26.948 12.088 26.948 26.948v21.558c0 14.86-12.088 26.948-26.948 26.948H490.442a16.168 16.168 0 0 0-16.168 16.168 16.168 16.168 0 0 0 16.168 16.168h150.906c14.86 0 26.948 12.088 26.948 26.948v21.558c0 14.86-12.088 26.948-26.948 26.948H490.442a16.166 16.166 0 0 0-16.168 16.168 16.168 16.168 0 0 0 16.168 16.168h150.906c14.86 0 26.948 12.088 26.948 26.948v21.558c0 14.86-12.088 26.948-26.948 26.948H490.442a16.166 16.166 0 0 0-16.168 16.168 16.168 16.168 0 0 0 16.168 16.168h150.906c14.86 0 26.948 12.088 26.948 26.948v21.558c0 14.86-12.088 26.948-26.948 26.948h-292.88c-15.288 0-29.676-5.94-40.512-16.72-17.106-17.02-39.686-26.396-63.58-26.396H204.8V770.698c0-8.932-7.24-16.168-16.168-16.168s-16.168 7.236-16.168 16.168v215.578a5.396 5.396 0 0 1-5.39 5.39h-48.506V770.694c0-8.932-7.24-16.168-16.168-16.168s-16.168 7.236-16.168 16.168v220.968H37.726a5.396 5.396 0 0 1-5.39-5.39V619.79a5.396 5.396 0 0 1 5.39-5.39h129.348a5.396 5.396 0 0 1 5.39 5.39v86.232c0 8.932 7.24 16.168 16.168 16.168s16.168-7.236 16.168-16.168v-48.506h38.984a59.214 59.214 0 0 0 56.242-40.536l6.018-18.064a546.426 546.426 0 0 0 28.102-173.148c0-14.86 12.088-26.948 26.948-26.948 12.958 0 25.138 5.046 34.3 14.208s14.206 21.342 14.206 34.3v172.458a16.168 16.168 0 0 0 32.336 0V447.328c0-21.594-8.408-41.898-23.678-57.168-15.27-15.27-35.572-23.68-57.168-23.68-32.69 0-59.284 26.596-59.284 59.284 0 55.48-8.896 110.294-26.442 162.922l-6.022 18.064a26.914 26.914 0 0 1-25.564 18.426H204.8v-5.39c0-20.802-16.926-37.726-37.726-37.726H37.726C16.926 582.064 0 598.988 0 619.79v366.484c0 20.8 16.926 37.726 37.726 37.726h129.348c20.802 0 37.726-16.926 37.726-37.726v-5.39h39.574c15.288 0 29.768 6.032 40.772 16.982 16.938 16.852 39.426 26.134 63.32 26.134h292.882c32.69 0 59.284-26.596 59.284-59.284v-21.558c0-16.97-7.168-32.298-18.634-43.116 11.466-10.818 18.634-26.146 18.634-43.116v-21.558c0-16.97-7.168-32.298-18.634-43.116 11.466-10.818 18.634-26.146 18.634-43.116v-21.558c0-16.97-7.168-32.298-18.634-43.116 11.466-10.818 18.634-26.146 18.634-43.116v-21.558c0-32.686-26.594-59.282-59.284-59.282z" p-id="1782" fill="#13227a" data-spm-anchor-id="a313x.7781069.0.i4" class="selected"></path><path d="M587.402 519.55c4.238 0 8.53-0.326 12.846-1 45.216-7.06 76.258-49.586 69.2-94.798-7.056-45.216-49.592-76.266-94.796-69.204-45.216 7.06-76.258 49.586-69.2 94.798 6.384 40.898 41.788 70.202 81.95 70.204z m-7.762-133.054c27.6-4.286 53.554 14.642 57.862 42.238 4.308 27.598-14.64 53.554-42.236 57.864-27.596 4.308-53.554-14.642-57.862-42.238-4.308-27.598 14.64-53.554 42.236-57.864z m154.018 206.346a16.12 16.12 0 0 0 11.682-4.988c47.564-49.7 68.764-117.14 58.168-185.028-5.384-34.488-18.416-66.226-38.742-94.326a16.172 16.172 0 0 0-26.204 18.952c17.304 23.928 28.406 50.966 32.994 80.36 9.028 57.85-9.042 115.324-49.58 157.686a16.168 16.168 0 0 0 11.682 27.344z m-11.37-308.246a16.164 16.164 0 0 0-3.178-22.642c-47.676-35.944-106.412-50.68-165.382-41.46-67.668 10.56-125.34 51.122-158.23 111.288a16.17 16.17 0 0 0 28.372 15.514c28.034-51.28 77.182-85.852 134.844-94.85 50.252-7.85 100.302 4.704 140.928 35.332 7.134 5.37 17.272 3.95 22.646-3.182z" p-id="1783" fill="#13227a" data-spm-anchor-id="a313x.7781069.0.i1" class="selected"></path></svg>