<?xml version="1.0" standalone="no"?><!DOCTYPE svg PUBLIC "-//W3C//DTD SVG 1.1//EN" "http://www.w3.org/Graphics/SVG/1.1/DTD/svg11.dtd"><svg t="1690957396321" class="icon" viewBox="0 0 1024 1024" version="1.1" xmlns="http://www.w3.org/2000/svg" p-id="2518" xmlns:xlink="http://www.w3.org/1999/xlink" width="200" height="200"><path d="M109.839274 282.472415c7.299287 3.899619 16.598379 7.299287 20.497998 13.698662 10.398984 16.89835 17.598281 35.796504 27.497314 52.994825 11.798848 20.497998 11.898838 48.595254 38.09628 60.194121 1.399863 0.599941 2.199785 2.899717 2.899717 4.599551 14.298604 33.696709 28.997168 67.193438 42.295869 101.290109 4.29958 10.998926 10.199004 26.497412 5.699444 34.596621-5.799434 10.598965-1.799824 17.898252 0.399961 25.29753 4.899522 16.398399 7.299287 31.896885 2.699736 48.995215-4.29958 16.198418-1.699834 30.397032 15.298506 40.496045 11.798848 6.899326 21.697881 17.398301 31.396934 27.397325 6.099404 6.299385 10.099014 14.498584 15.098526 21.897861-0.399961 1.399863-0.899912 2.799727-1.299873 4.29958 12.298799 0 24.697588 0.499951 36.896396-0.09999 16.498389-0.799922 28.597207-13.098721 27.797286-29.6971-2.099795-42.795821 5.199492-84.691729 16.298408-125.287765 13.898643-50.89503 30.697002-101.190118 49.395176-150.585294 19.398106-51.294991 44.495655-100.290206 74.692706-146.085734 18.998145-28.697198 43.895713-54.094717 52.394884-89.49126 2.599746-10.698955 8.49917-24.797578 16.99834-28.897178 16.098428-7.699248 12.198809-17.19832 9.899033-32.696807-7.399277 8.29919-11.398887 15.498486-17.598282 19.098135-5.799434 3.399668-3.399668 19.298115-18.998144 10.199004 9.099111-23.097744 18.098233-46.195489 27.197344-69.293234l-1.799825-0.499951c-7.799238 8.49917-15.498486 16.99834-23.297724 25.49751l-3.199688-2.299775c18.098233-31.596914 36.096475-63.293819 54.194708-94.890733C610.090421 2.099795 608.990528 1.099893 607.790645 0c-0.699932 2.099795-0.899912 4.699541-2.199785 6.299385-24.897569 31.796895-49.695147 63.69378-74.992676 95.190704-2.899717 3.599648-8.099209 5.299482-12.198809 7.899228-2.099795-3.899619-4.19959-7.799238-7.399277-13.598672-7.699248 8.199199-14.998535 16.498389-22.797774 24.397618-2.499756 2.499756-6.099404 5.699443-9.099111 5.599453-14.698565-0.599941-20.797969 10.199004-25.797481 20.198028-11.798848 23.497705-22.697783 47.595352-32.796797 71.892979-17.698272 42.39586-34.696612 85.09169-51.694952 127.787521-14.798555 36.996387-29.097158 74.292745-43.995704 111.289131-1.199883 2.899717-4.799531 4.799531-7.299287 7.199297-1.999805-2.699736-4.899522-5.099502-5.899424-8.199199-2.999707-9.199102-4.999512-18.698174-7.699248-27.997266-9.499072-32.396836-19.698076-64.693682-28.597207-97.190509-10.698955-38.896202-21.697881-77.792403-29.79709-117.188555-3.099697-14.898545-4.899522-28.197246-17.998243-37.796309-7.499268-5.499463-13.698662-12.79875-21.797871-20.398008-1.699834 0.299971-6.799336 3.199688-10.298994 1.799824-12.998731-5.199492-24.197637-4.699541-37.496338 1.199883-9.099111 3.999609-21.497901 0.799922-31.596915 0.799922-3.199688 5.599453-7.599258 12.69876-11.398886 20.098037-3.499658 6.799336-6.199395 14.098623-9.399083 21.09794-1.899814 4.0996-4.699541 7.899229-5.899423 12.198808-2.899717 10.099014-5.199492 20.398008-7.699249 30.597012-0.799922 5.899424 2.899717 12.398789 4.499561 19.398106 1.899814 8.49917 5.099502 15.398496 13.398692 19.898057z" p-id="2519"></path><path d="M677.78381 407.560199c3.599648-1.399863 6.999316-3.399668 9.999024-5.799433 3.499658-2.899717 5.999414-8.69915 9.799043-9.499073 10.598965-2.299775 20.398008-2.999707 32.496826-0.299971 36.496436 8.199199 63.79377 29.297139 91.591056 51.994923 13.298701 10.798945 29.397129 16.79836 48.195293 8.49917 25.69749-11.398887 38.29626-33.696709 48.995216-56.994434 8.49917-18.398203 15.998438-37.596328 12.498779-59.694171-2.599746-17.09833-2.899717-34.396641-0.999902-51.594961 1.099893-9.899033 1.099893-17.298311-7.399278-24.297627-10.099014 7.899229-15.598477 17.998242-31.896885 18.698174-19.698076 0.799922-38.596231 14.598574-58.594278 18.798164-16.89835 3.499658-34.896592 1.999805-52.394883 1.499853-23.097744-0.599941-46.79543-6.399375-69.093253-2.799726-49.395176 8.199199-92.690948 31.196953-130.087296 65.493604-32.796797 30.197051-58.294307 64.393712-62.993848 110.889171-4.799531 47.795332 20.597988 85.19168 67.293428 92.590958 38.09628 5.999414 76.892491 7.299287 115.288742 10.798945 22.397813 1.999805 44.895616 4.599551 59.394199 25.29753 2.199785 3.099697 3.999609 9.999024 2.299776 11.898838-7.999219 9.099111-16.198418 18.798164-26.197442 25.197539-28.097256 17.798262-56.594473 34.996582-85.791622 50.79504-19.998047 10.898936-41.195977 19.398106-62.093936 28.497217-11.598867 4.999512-24.797578 7.099307-35.396543 13.698662-35.296553 21.997852-69.693194 45.395567-100.790157 65.893565-2.099795 7.199297-1.999805 12.498779-4.599551 14.698565-7.599258 6.799336-19.798067 19.298115-23.597696 17.19832-10.898936-5.999414-15.798457 2.999707-22.897764 4.699541-16.99834 4.19959-32.796797 10.298994-51.594961 4.999512-10.998926-3.099697-25.69749-1.199883-34.296651 11.398887-6.199395 8.999121-12.59877 17.898252-18.898154 26.797383 0.499951 1.099893 0.899912 2.299775 1.399863 3.399668 16.098428-3.399668 32.696807-5.199492 47.995313-10.598965 10.798945-3.799629 19.398106-13.698662 29.89708-18.798164 22.797774-11.198906 47.895323-12.89874 75.092667-16.89835-7.799238 13.998633-19.298115 15.198516-29.6971 18.698174-6.899326 2.299775-13.398692 5.399473-19.598086 9.199102-10.798945 6.499365-20.997949 13.998633-31.596914 20.797968-6.399375 4.0996-13.198711 7.599258-19.898057 11.398887 4.699541 0.899912 7.799238-0.699932 11.098916-2.099795 16.698369-7.199297 33.296748-14.598574 50.195098-21.39791 2.499756-0.999902 6.299385 0.999902 9.499072 1.699834-1.499854 2.499756-2.499756 6.599356-4.49956 7.199297-26.297432 7.899229-48.595254 30.597012-79.292257 22.397813-2.199785-0.599941-5.299482 0.999902-7.699248 2.199785-13.698662 6.499365-27.297334 13.098721-44.495655 21.29792 7.599258-0.999902 11.398887-1.499854 19.198126-2.499756-29.097158 14.598574-49.195196 40.196075-81.192072 37.596329l-1.799824-3.599649c4.19959-2.799727 8.49917-5.499463 14.398594-9.399082-26.797383 9.099111-51.494971 17.498291-76.192559 25.897471 0.19998 0.599941 0.299971 1.099893 0.499951 1.699834h15.198516l1.199883 3.299678c-24.797578 20.597988-57.694366 26.797383-83.691827 45.495557 5.099502 0.399961 9.599063-0.999902 14.098623-2.199785 12.298799-3.299678 25.29753-10.798945 36.596426-8.699151 10.099014 1.899814 13.498682-1.099893 20.298018-5.899424 15.498486-10.998926 31.796895-21.597891 48.995215-29.397129 34.996582-15.998438 70.393126-31.296944 106.38961-44.595645 17.798262-6.499365 35.996485-23.797676 54.194708-7.199297 28.197246-8.899131 54.494678-17.09833 80.69212-25.69749 6.599356-2.199785 12.59877-6.399375 19.098135-8.999122 19.898057-7.799238 39.896104-15.398496 60.094131-22.697783 4.899522-1.799824 10.398984-1.699834 15.598477-2.499756 0.399961 1.499854 0.899912 3.099697 1.299873 4.599551-25.39752 13.398692-50.89503 26.797383-79.592227 41.895909 92.890929 1.699834 157.884582-55.494581 233.077238-93.590861-4.999512-2.299775-7.399277-3.299678-12.598769-5.699443 6.899326-3.599648 11.698858-5.699443 16.198418-8.39918 5.299482-3.099697 10.298994-6.599356 15.398496-9.899033 17.798262-11.298897 34.496631-25.997461 53.794747-33.096768 34.596621-12.69876 66.993458-27.297334 92.390977-55.19461 9.599063-10.598965 18.198223-22.697783 29.497119-30.996973 11.798848-8.69915 13.998633-21.39791 16.69837-32.996778 2.499756-10.698955 2.599746-25.097549-2.699737-33.696709-14.498584-23.297725-33.696709-42.39586-60.694072-52.294893C807.971097 541.047163 763.175471 542.047066 719.279758 536.347622c-21.497901-2.799727-43.295772-4.599551-64.193731-9.799043-35.296553-8.799141-47.695342-40.296065-31.196954-72.992872 11.698858-23.297725 30.697002-36.996387 53.894737-45.995508z" p-id="2520"></path></svg>